<mxfile host="app.diagrams.net" agent="Mozilla/5.0 (Windows NT 10.0; Win64; x64) AppleWebKit/537.36 (KHTML, like Gecko) Chrome/135.0.0.0 Safari/537.36" version="26.2.13">
  <diagram name="Page-1" id="cEeB9vaKVC1YpcDtXnJP">
    <mxGraphModel dx="788" dy="1559" grid="1" gridSize="10" guides="1" tooltips="1" connect="1" arrows="1" fold="1" page="1" pageScale="1" pageWidth="850" pageHeight="1100" math="0" shadow="0">
      <root>
        <mxCell id="0" />
        <mxCell id="1" parent="0" />
        <mxCell id="PQSC4598RV77aH5fQuni-1" value="&lt;h1 style=&quot;margin-top: 0px;&quot;&gt;Requirement&lt;/h1&gt;&lt;p&gt;&lt;font face=&quot;Times New Roman&quot;&gt;1. Menampilkan total pengguna spotify mendengarkan album artis &amp;gt;&amp;gt;&lt;b&gt;&amp;gt;TREE MAP&lt;/b&gt;&lt;/font&gt;&lt;/p&gt;&lt;p&gt;&lt;font face=&quot;Times New Roman&quot;&gt;2.menunjukkan rata rata dalam&amp;nbsp; persentase pengguna&amp;nbsp; melompati lagu lain tanpa mendengarnya hingga selesai, dan di klasifikasikan berdasarkan tipe platform(premium dan gratis)&amp;gt;&amp;gt;&amp;gt;&amp;gt;&amp;gt;&amp;gt;&lt;b&gt;SCATTER PLOT&lt;/b&gt;&lt;/font&gt;&lt;/p&gt;&lt;p&gt;&lt;font face=&quot;Times New Roman&quot;&gt;3.menampilkan selera genre musik&amp;nbsp; pengguna spotify di setiap negara berdasarkan&amp;nbsp;Total jam yang dihabiskan pengguna untuk mendengarkan artis (dalam jutaan) &amp;gt;&amp;gt;&amp;gt;&amp;gt;&amp;gt;&amp;gt;&lt;b&gt;BAR CHART&lt;/b&gt;&lt;/font&gt;&lt;/p&gt;&lt;p&gt;&lt;font face=&quot;Times New Roman&quot;&gt;4.menampilkan rata rata pendengar aktif bulanan di setiap negara(dalam jutaan) &amp;gt;&amp;gt;&amp;gt;&amp;gt;&amp;gt;menggunakan &lt;b&gt;MAPCHART&lt;/b&gt;&lt;/font&gt;&lt;/p&gt;&lt;p&gt;&lt;font face=&quot;Times New Roman&quot;&gt;5.menampilkan tahun rilis album artis dari tahun ketahun berdasarkan stream yang dihasilkan dalam 30 hari terakhir (dalam jutaan)&amp;gt;&amp;gt;&amp;gt;&amp;gt;&amp;gt;menggunakan&lt;b&gt; LINECHART&lt;/b&gt;&lt;/font&gt;&lt;/p&gt;" style="text;html=1;whiteSpace=wrap;overflow=hidden;rounded=0;" vertex="1" parent="1">
          <mxGeometry x="190" y="-1100" width="630" height="220" as="geometry" />
        </mxCell>
        <mxCell id="PQSC4598RV77aH5fQuni-6" value="MAP CHART" style="rounded=0;whiteSpace=wrap;html=1;" vertex="1" parent="1">
          <mxGeometry x="210" y="-790" width="290" height="190" as="geometry" />
        </mxCell>
        <mxCell id="PQSC4598RV77aH5fQuni-7" value="JUDUL" style="rounded=1;whiteSpace=wrap;html=1;" vertex="1" parent="1">
          <mxGeometry x="210" y="-860" width="330" height="60" as="geometry" />
        </mxCell>
        <mxCell id="PQSC4598RV77aH5fQuni-10" value="TREE MAP" style="rounded=0;whiteSpace=wrap;html=1;" vertex="1" parent="1">
          <mxGeometry x="520" y="-790" width="300" height="190" as="geometry" />
        </mxCell>
        <mxCell id="PQSC4598RV77aH5fQuni-11" value="BAR CHART" style="whiteSpace=wrap;html=1;aspect=fixed;" vertex="1" parent="1">
          <mxGeometry x="220" y="-580" width="180" height="180" as="geometry" />
        </mxCell>
        <mxCell id="PQSC4598RV77aH5fQuni-12" value="LINE CHART" style="whiteSpace=wrap;html=1;aspect=fixed;" vertex="1" parent="1">
          <mxGeometry x="430" y="-580" width="180" height="180" as="geometry" />
        </mxCell>
        <mxCell id="PQSC4598RV77aH5fQuni-13" value="SCATTER PLOT" style="whiteSpace=wrap;html=1;aspect=fixed;" vertex="1" parent="1">
          <mxGeometry x="640" y="-580" width="180" height="180" as="geometry" />
        </mxCell>
        <mxCell id="PQSC4598RV77aH5fQuni-15" value="Filter Artis" style="rounded=0;whiteSpace=wrap;html=1;" vertex="1" parent="1">
          <mxGeometry x="550" y="-850" width="60" height="40" as="geometry" />
        </mxCell>
        <mxCell id="PQSC4598RV77aH5fQuni-16" value="Filter Negara" style="rounded=0;whiteSpace=wrap;html=1;" vertex="1" parent="1">
          <mxGeometry x="620" y="-850" width="60" height="40" as="geometry" />
        </mxCell>
        <mxCell id="PQSC4598RV77aH5fQuni-17" value="Filter Genre" style="rounded=0;whiteSpace=wrap;html=1;" vertex="1" parent="1">
          <mxGeometry x="690" y="-850" width="60" height="40" as="geometry" />
        </mxCell>
        <mxCell id="PQSC4598RV77aH5fQuni-18" value="Navigation menuju story" style="rounded=0;whiteSpace=wrap;html=1;" vertex="1" parent="1">
          <mxGeometry x="770" y="-850" width="70" height="40" as="geometry" />
        </mxCell>
      </root>
    </mxGraphModel>
  </diagram>
</mxfile>
